<svg id="Layer_2" data-name="Layer 2" xmlns="http://www.w3.org/2000/svg" width="538" height="577.7683" viewBox="0 0 538 577.7683"><defs><style>.cls-1{fill:#3b4658;}.cls-2{fill:#f2f3f7;}.cls-3{fill:#ebebf0;}.cls-4{fill:#fff;}.cls-5{fill:#2d3641;}.cls-6{fill:#d5d5e0;}.cls-7{fill:#f5ecec;}.cls-8{fill:#dc6961;}.cls-9{fill:#769efb;}.cls-10{fill:#c24d54;}.cls-11{fill:#253b6f;}.cls-12{fill:#dccacb;}.cls-13{fill:#de5757;}.cls-14{fill:#2644ab;}.cls-15{fill:#97bcfc;}.cls-16{fill:#508be3;}.cls-17{fill:#e6c79f;}.cls-18{fill:#272425;}.cls-19{fill:#981e27;}</style></defs><polygon class="cls-1" points="75 290.007 60 431.007 67 431.007 93 290.007 75 290.007"/><polygon class="cls-1" points="460 290.007 475 431.007 468 431.007 442 290.007 460 290.007"/><ellipse class="cls-2" cx="269" cy="512.721" rx="179.587" ry="65.0473"/><polygon class="cls-1" points="538 321.007 0 321.007 32.606 262.007 493.749 262.007 538 321.007"/><polygon class="cls-1" points="28 332.007 13 473.007 20 473.007 46 332.007 28 332.007"/><polygon class="cls-1" points="504 332.007 519 473.007 512 473.007 486 332.007 504 332.007"/><polygon class="cls-3" points="167.586 294.431 168.237 299.643 368.84 299.643 370.306 294.594 167.586 294.431"/><path class="cls-4" d="M405.9464,323.4152a3.3521,3.3521,0,0,1-3.3746,4.7284h-195a3.6293,3.6293,0,0,1-3.6844-4.8238l5.1866-19.0177a6.8924,6.8924,0,0,1,6.3155-4.8007l177.6272.8224a7.555,7.555,0,0,1,6.6254,4.7516Z" transform="translate(-36.0718 -31.1068)"/><rect class="cls-5" y="321.0071" width="538" height="13"/><path class="cls-3" d="M116.4372,278.1019s.4991,7.7972-1.178,13.1721c-2.7569,8.8358-10.4759,9.7641-10.4759,14.4572,0,.0882,48.4929.107,48.4929,0,0-4.4789-7.3123-5.903-9.8523-14.1359-1.9029-6.1682-.8027-13.4934-.8027-13.4934Z" transform="translate(-36.0718 -31.1068)"/><rect class="cls-6" x="68.7193" y="274.5441" width="48.4851" height="2.1418"/><path class="cls-3" d="M116.4372,156.7686s.4991,7.7971-1.178,13.1721c-2.7569,8.8357-10.4759,9.7641-10.4759,14.4572,0,.0881,48.4929.107,48.4929,0,0-4.4789-7.3123-5.9031-9.8523-14.136-1.9029-6.1681-.8027-13.4933-.8027-13.4933Z" transform="translate(-36.0718 -31.1068)"/><rect class="cls-6" x="68.7193" y="153.2107" width="48.4851" height="2.1419"/><rect class="cls-4" x="7.5" y="134.5505" width="170.9159" height="116.9424" rx="10"/><rect class="cls-7" x="14.8892" y="142.261" width="156.1375" height="91.2407"/><path class="cls-8" d="M132.885,273.6041a3.8553,3.8553,0,1,1-3.8552-3.8552A3.8552,3.8552,0,0,1,132.885,273.6041Z" transform="translate(-36.0718 -31.1068)"/><path class="cls-3" d="M291.3134,278.1019s.4991,7.7972-1.178,13.1721c-2.7569,8.8358-10.4759,9.7641-10.4759,14.4572,0,.0882,48.4929.107,48.4929,0,0-4.4789-7.3123-5.903-9.8523-14.1359-1.9029-6.1682-.8027-13.4934-.8027-13.4934Z" transform="translate(-36.0718 -31.1068)"/><rect class="cls-6" x="243.5955" y="274.5441" width="48.4851" height="2.1418"/><path class="cls-3" d="M291.3134,154.4353s.4991,7.7971-1.178,13.1721c-2.7569,8.8357-10.4759,9.764-10.4759,14.4571,0,.0882,48.4929.1071,48.4929,0,0-4.4789-7.3123-5.903-9.8523-14.1359-1.9029-6.1681-.8027-13.4933-.8027-13.4933Z" transform="translate(-36.0718 -31.1068)"/><rect class="cls-6" x="243.5955" y="150.8774" width="48.4851" height="2.1418"/><rect class="cls-4" x="182.3762" y="134.5505" width="170.9159" height="116.9424" rx="10"/><rect class="cls-7" x="189.7654" y="142.261" width="156.1375" height="91.2407"/><path class="cls-9" d="M307.7612,273.6041a3.8553,3.8553,0,1,1-3.8552-3.8552A3.8552,3.8552,0,0,1,307.7612,273.6041Z" transform="translate(-36.0718 -31.1068)"/><path class="cls-3" d="M468.5213,278.1019s.4991,7.7972-1.178,13.1721c-2.7569,8.8358-10.4759,9.7641-10.4759,14.4572,0,.0882,48.4929.107,48.4929,0,0-4.4789-7.3123-5.903-9.8523-14.1359-1.9029-6.1682-.8027-13.4934-.8027-13.4934Z" transform="translate(-36.0718 -31.1068)"/><rect class="cls-6" x="420.8034" y="274.5441" width="48.4851" height="2.1418"/><path class="cls-3" d="M468.5213,156.1019s.4991,7.7972-1.178,13.1721c-2.7569,8.8358-10.4759,9.7641-10.4759,14.4572,0,.0882,48.4929.107,48.4929,0,0-4.4789-7.3123-5.903-9.8523-14.1359-1.9029-6.1682-.8027-13.4934-.8027-13.4934Z" transform="translate(-36.0718 -31.1068)"/><rect class="cls-6" x="420.8034" y="152.5441" width="48.4851" height="2.1418"/><rect class="cls-4" x="359.5841" y="134.5505" width="170.9159" height="116.9424" rx="10"/><rect class="cls-7" x="366.9733" y="142.261" width="156.1375" height="91.2407"/><path class="cls-8" d="M484.9691,273.6041a3.8553,3.8553,0,1,1-3.8553-3.8552A3.8553,3.8553,0,0,1,484.9691,273.6041Z" transform="translate(-36.0718 -31.1068)"/><rect class="cls-4" x="359.5841" y="0.0071" width="170.9159" height="126" rx="10"/><rect class="cls-7" x="366.9733" y="6.0071" width="156.1375" height="102"/><path class="cls-8" d="M484.9691,148.6041a3.8553,3.8553,0,1,1-3.8553-3.8552A3.8553,3.8553,0,0,1,484.9691,148.6041Z" transform="translate(-36.0718 -31.1068)"/><rect class="cls-4" x="7.5" width="170.9159" height="126" rx="10"/><rect class="cls-7" x="14.8892" y="7.0071" width="156.1375" height="102"/><path class="cls-8" d="M132.885,148.6041a3.8553,3.8553,0,1,1-3.8552-3.8552A3.8552,3.8552,0,0,1,132.885,148.6041Z" transform="translate(-36.0718 -31.1068)"/><rect class="cls-4" x="182.3762" y="0.0071" width="170.9159" height="126" rx="10"/><rect class="cls-7" x="189.7654" y="6.0071" width="156.1375" height="102"/><path class="cls-10" d="M307.7612,148.6041a3.8553,3.8553,0,1,1-3.8552-3.8552A3.8552,3.8552,0,0,1,307.7612,148.6041Z" transform="translate(-36.0718 -31.1068)"/><polygon class="cls-10" points="402.847 57.242 401.247 54.989 436.93 29.635 469.192 45.766 508.148 19.362 509.699 21.65 469.403 48.961 437.178 32.849 402.847 57.242"/><polygon class="cls-10" points="507.573 25.383 508.45 20.827 503.893 19.953 506.198 18.391 510.753 19.266 509.879 23.821 507.573 25.383"/><polygon class="cls-11" points="435.365 84.674 424.617 84.674 424.617 50.588 435.365 43.064 435.365 84.674"/><polygon class="cls-11" points="418.783 84.674 408.035 84.674 408.265 62.257 418.783 55.041 418.783 84.674"/><polygon class="cls-11" points="452.869 84.674 442.121 84.674 442.121 44.753 452.869 51.202 452.869 84.674"/><polygon class="cls-11" points="469.451 84.674 458.703 84.674 458.703 53.044 469.451 57.651 469.451 84.674"/><polygon class="cls-11" points="486.955 84.674 476.207 84.674 476.207 54.58 486.955 47.517 486.955 84.674"/><polygon class="cls-11" points="504.458 84.674 493.71 84.674 493.71 42.297 504.458 34.927 504.458 84.674"/><rect class="cls-12" x="376" y="20.0071" width="13.667" height="2"/><rect class="cls-12" x="376" y="26.0071" width="15.333" height="2"/><rect class="cls-12" x="376" y="32.0071" width="11" height="2"/><rect class="cls-12" x="376" y="39.0071" width="7" height="2"/><rect class="cls-12" x="376" y="45.0071" width="16.667" height="2"/><rect class="cls-12" x="376" y="51.0071" width="13.333" height="2"/><rect class="cls-12" x="376" y="58.0071" width="10.333" height="2"/><rect class="cls-12" x="376" y="64.0071" width="13" height="2"/><rect class="cls-12" x="376" y="70.0071" width="13.667" height="2"/><rect class="cls-12" x="376" y="77.0071" width="13.333" height="2"/><rect class="cls-12" x="376" y="83.0071" width="10.333" height="2"/><rect class="cls-12" x="199" y="154.0071" width="28.7002" height="2"/><rect class="cls-12" x="199" y="160.0071" width="32.2002" height="2"/><rect class="cls-12" x="199" y="166.0071" width="23.1001" height="2"/><rect class="cls-12" x="199" y="173.0071" width="14.7002" height="2"/><rect class="cls-12" x="199" y="179.0071" width="35" height="2"/><rect class="cls-12" x="199" y="185.0071" width="28" height="2"/><rect class="cls-12" x="199" y="192.0071" width="21.7002" height="2"/><rect class="cls-12" x="199" y="198.0071" width="27.2998" height="2"/><rect class="cls-12" x="199" y="204.0071" width="28.7002" height="2"/><rect class="cls-12" x="199" y="211.0071" width="28" height="2"/><rect class="cls-12" x="199" y="217.0071" width="21.7002" height="2"/><rect class="cls-12" x="306.5" y="154.0071" width="28.7002" height="2"/><rect class="cls-12" x="306.5" y="160.0071" width="32.2002" height="2"/><rect class="cls-12" x="306.5" y="166.0071" width="23.0996" height="2"/><rect class="cls-12" x="306.5" y="173.0071" width="14.7002" height="2"/><rect class="cls-12" x="306.5" y="179.0071" width="35" height="2"/><rect class="cls-12" x="306.5" y="185.0071" width="28" height="2"/><rect class="cls-12" x="306.5" y="192.0071" width="21.7002" height="2"/><rect class="cls-12" x="306.5" y="198.0071" width="27.2998" height="2"/><rect class="cls-12" x="306.5" y="204.0071" width="28.7002" height="2"/><rect class="cls-12" x="306.5" y="211.0071" width="28" height="2"/><rect class="cls-12" x="306.5" y="217.0071" width="21.7002" height="2"/><rect class="cls-12" x="381" y="92.0071" width="34.667" height="2"/><rect class="cls-12" x="422.333" y="92.0071" width="37.667" height="2"/><rect class="cls-12" x="463.5" y="92.0071" width="40.5" height="2"/><rect class="cls-12" x="395" y="98.0071" width="31.667" height="2"/><rect class="cls-12" x="432" y="98.0071" width="23.915" height="2"/><rect class="cls-12" x="460.667" y="98.0071" width="25.833" height="2"/><rect class="cls-12" x="383.333" y="217.6736" width="34.667" height="2"/><rect class="cls-12" x="424.667" y="217.6736" width="37.666" height="2"/><rect class="cls-12" x="465.833" y="217.6736" width="40.5" height="2"/><rect class="cls-12" x="397.333" y="223.6741" width="31.667" height="2"/><rect class="cls-12" x="434.333" y="223.6741" width="23.915" height="2"/><rect class="cls-12" x="463" y="223.6741" width="25.833" height="2"/><rect class="cls-12" x="209" y="92.3406" width="47.6665" height="2"/><rect class="cls-12" x="209" y="98.3406" width="34.6665" height="2"/><rect class="cls-12" x="282" y="92.3406" width="45" height="2"/><rect class="cls-12" x="282" y="98.3406" width="40" height="2"/><path class="cls-13" d="M268.5718,83.7806l-17.6152,24.2452a29.9687,29.9687,0,0,1-6.63-41.86,29.0627,29.0627,0,0,1,24.2452-12.3536Z" transform="translate(-36.0718 -31.1068)"/><path class="cls-14" d="M268.5718,83.7806l28.502,9.2608a29.9688,29.9688,0,0,1-37.7629,19.2411,28.49,28.49,0,0,1-8.3543-4.2567Z" transform="translate(-36.0718 -31.1068)"/><path class="cls-15" d="M268.5718,83.7806,286.187,59.5353a29.4979,29.4979,0,0,1,10.8868,33.5061Z" transform="translate(-36.0718 -31.1068)"/><path class="cls-4" d="M268.5718,83.7806V53.8118a28.7146,28.7146,0,0,1,17.6152,5.7235Z" transform="translate(-36.0718 -31.1068)"/><circle class="cls-11" cx="232.5833" cy="52.5904" r="15"/><rect class="cls-12" x="226.25" y="50.0071" width="13.25" height="2"/><rect class="cls-12" x="229" y="54.0071" width="7.25" height="2"/><rect class="cls-12" x="433" y="23.3406" width="8" height="2"/><rect class="cls-12" x="465.667" y="37.6736" width="7" height="2"/><path class="cls-11" d="M63.5718,109.7806V91.4472c6.0526,0,13.2056-21.3333,21.4591-21.3333,9.3539,0,12.1051,9.3333,20.3586,9.3333s16.6823-23.6666,29.7125-23.6666c10.4545,0,18.1577,23,28.6121,23,11.3709,0,20.7562-23.6667,30.813-23.6667.0135,0,0,54.6667,0,54.6667Z" transform="translate(-36.0718 -31.1068)"/><path class="cls-8" d="M63.5718,115.7806v-14c6.0526,0,13.2056-19,21.4591-19,9.3539,0,12.1051,9,20.3586,9s17.0572-19.5,29.7125-19.5c10.4545,0,18.1577,17,28.6121,17,11.3709,0,20.7562-23.5,30.813-23.5.0135,0,0,50,0,50Z" transform="translate(-36.0718 -31.1068)"/><rect class="cls-12" x="31" y="92.0071" width="19" height="2"/><rect class="cls-12" x="56.5" y="92.0071" width="53.5" height="2"/><rect class="cls-12" x="113.5" y="92.0071" width="40.5" height="2"/><rect class="cls-12" x="51" y="98.0071" width="13.2075" height="2"/><rect class="cls-12" x="68.7256" y="98.0071" width="37.189" height="2"/><rect class="cls-12" x="108.3477" y="98.0071" width="28.1523" height="2"/><rect class="cls-12" x="44.3335" y="46.3406" width="8.6665" height="2"/><rect class="cls-12" x="64.3335" y="54.0071" width="7.6665" height="2"/><rect class="cls-12" x="94" y="35.0071" width="8.6665" height="2"/><rect class="cls-12" x="124.6665" y="52.3406" width="5.3335" height="2"/><rect class="cls-12" x="153.6665" y="29.0071" width="6.3335" height="2"/><rect class="cls-12" x="23.6665" y="65.3406" width="4.0835" height="2"/><rect class="cls-12" x="44.3335" y="33.3406" width="8.6665" height="2"/><rect class="cls-12" x="64.3335" y="41.0071" width="7.6665" height="2"/><rect class="cls-12" x="94" y="20.0071" width="8.6665" height="2"/><rect class="cls-12" x="124.6665" y="39.3406" width="5.3335" height="2"/><rect class="cls-12" x="153.6665" y="20.0071" width="6.3335" height="2"/><rect class="cls-12" x="23.6665" y="55.3406" width="4.0835" height="2"/><rect class="cls-11" x="118.8485" y="156.7571" width="40.1515" height="15"/><rect class="cls-11" x="66.6515" y="177.5904" width="20.0758" height="15"/><rect class="cls-11" x="100.7803" y="198.4238" width="30.1136" height="15"/><rect class="cls-8" x="88.7348" y="156.7571" width="30.1137" height="15"/><rect class="cls-8" x="50.5909" y="177.5904" width="16.0606" height="15"/><rect class="cls-8" x="76.6894" y="198.4238" width="24.0909" height="15"/><rect class="cls-14" x="68.6591" y="156.7571" width="20.0757" height="15"/><rect class="cls-14" x="38.5455" y="177.5904" width="12.0454" height="15"/><rect class="cls-14" x="60.6288" y="198.4238" width="16.0606" height="15"/><rect class="cls-16" x="50.5909" y="156.7571" width="18.0682" height="15"/><rect class="cls-16" x="36.5379" y="177.5904" width="2.0076" height="15"/><rect class="cls-16" x="50.5909" y="198.4238" width="10.0379" height="15"/><rect class="cls-15" x="36.5379" y="156.7571" width="14.053" height="15"/><rect class="cls-15" x="32.5227" y="177.5904" width="4.0152" height="15"/><rect class="cls-15" x="34.5303" y="198.4238" width="16.0606" height="15"/><rect class="cls-4" x="26.5" y="156.7571" width="10.0379" height="15"/><rect class="cls-4" x="26.5" y="177.5904" width="6.0227" height="15"/><rect class="cls-4" x="26.5" y="198.4238" width="8.0303" height="15"/><rect class="cls-11" x="386.3334" y="155.5071" width="14.5248" height="8.8663"/><rect class="cls-11" x="406.5067" y="182.2184" width="14.5248" height="7.5711"/><rect class="cls-11" x="426.6801" y="166.1916" width="14.5248" height="11.7119"/><rect class="cls-13" x="386.3334" y="164.3735" width="14.5248" height="14.6631"/><rect class="cls-13" x="406.5068" y="189.7895" width="14.5247" height="7.8204"/><rect class="cls-13" x="426.68" y="177.9034" width="14.5248" height="6.9984"/><rect class="cls-14" x="386.3334" y="179.0366" width="14.5248" height="9.7754"/><rect class="cls-14" x="406.5068" y="197.6099" width="14.5247" height="5.8652"/><rect class="cls-14" x="426.6801" y="184.9018" width="14.5248" height="7.8204"/><rect class="cls-16" x="386.3334" y="188.812" width="14.5248" height="8.7979"/><rect class="cls-16" x="406.5068" y="203.4751" width="14.5247" height="0.9775"/><rect class="cls-16" x="426.6801" y="192.7222" width="14.5248" height="4.8877"/><rect class="cls-15" x="386.3334" y="197.6099" width="14.5248" height="6.8427"/><rect class="cls-15" x="406.5068" y="204.4526" width="14.5247" height="1.9551"/><rect class="cls-15" x="426.6801" y="197.6099" width="14.5248" height="7.8203"/><rect class="cls-4" x="386.3334" y="204.4526" width="14.5248" height="4.8877"/><rect class="cls-4" x="406.5068" y="206.4077" width="14.5247" height="2.9326"/><rect class="cls-4" x="426.6801" y="205.4302" width="14.5248" height="3.9101"/><rect class="cls-11" x="448.6286" y="158.4186" width="14.5248" height="6.0077"/><rect class="cls-11" x="468.802" y="170.1516" width="14.5247" height="9.7754"/><rect class="cls-11" x="488.9752" y="178.5198" width="14.5247" height="3.4865"/><rect class="cls-13" x="448.6286" y="164.3735" width="14.5248" height="14.6631"/><rect class="cls-13" x="468.802" y="179.927" width="14.5247" height="7.8203"/><rect class="cls-13" x="488.9752" y="181.8073" width="14.5248" height="3.0944"/><rect class="cls-14" x="448.6286" y="179.0366" width="14.5248" height="9.7754"/><rect class="cls-14" x="468.802" y="187.7473" width="14.5247" height="5.8652"/><rect class="cls-14" x="488.9753" y="184.9018" width="14.5248" height="7.8204"/><rect class="cls-16" x="448.6286" y="188.812" width="14.5248" height="8.7979"/><rect class="cls-16" x="468.8025" y="193.419" width="14.5248" height="5.3051"/><rect class="cls-16" x="488.9753" y="192.7222" width="14.5248" height="4.8877"/><rect class="cls-15" x="448.6286" y="197.6099" width="14.5248" height="6.8427"/><rect class="cls-15" x="468.8022" y="198.5604" width="14.5248" height="6.3502"/><rect class="cls-15" x="488.9753" y="197.6099" width="14.5248" height="7.8203"/><rect class="cls-4" x="448.6286" y="204.4526" width="14.5248" height="4.8877"/><rect class="cls-4" x="468.802" y="204.6851" width="14.5248" height="4.5571"/><rect class="cls-4" x="488.9753" y="205.4302" width="14.5248" height="3.9101"/><rect class="cls-12" x="26.6665" y="221.0071" width="6.582" height="2"/><rect class="cls-12" x="39.1377" y="221.0071" width="6.582" height="2"/><rect class="cls-12" x="51.6089" y="221.0071" width="6.582" height="2"/><rect class="cls-12" x="64.0801" y="221.0071" width="6.582" height="2"/><rect class="cls-12" x="77.5908" y="221.0071" width="6.5821" height="2"/><rect class="cls-12" x="90.062" y="221.0071" width="6.582" height="2"/><rect class="cls-12" x="102.5332" y="221.0071" width="6.582" height="2"/><rect class="cls-12" x="115.0044" y="221.0071" width="6.582" height="2"/><rect class="cls-12" x="127.4756" y="221.0071" width="6.582" height="2"/><rect class="cls-12" x="139.9468" y="221.0071" width="6.582" height="2"/><rect class="cls-12" x="152.418" y="221.0071" width="6.582" height="2"/><path class="cls-13" d="M339.0844,84.1162l16.3222-25.1338a29.9686,29.9686,0,0,1,8.8117,41.456,29.0627,29.0627,0,0,1-23.5654,13.6056Z" transform="translate(-36.0718 -31.1068)"/><path class="cls-14" d="M339.0844,84.1162,310.1368,76.36A29.9689,29.9689,0,0,1,346.841,55.1687a28.4908,28.4908,0,0,1,8.5656,3.8137Z" transform="translate(-36.0718 -31.1068)"/><path class="cls-15" d="M339.0844,84.1162,322.7623,109.25a29.4979,29.4979,0,0,1-12.6255-32.89Z" transform="translate(-36.0718 -31.1068)"/><path class="cls-4" d="M339.0844,84.1162l1.5685,29.9278a28.7142,28.7142,0,0,1-17.8906-4.7938Z" transform="translate(-36.0718 -31.1068)"/><circle class="cls-11" cx="303.0331" cy="52.9197" r="15"/><rect class="cls-12" x="296.1163" y="53.503" width="13.25" height="2"/><rect class="cls-12" x="299.3663" y="49.503" width="7.25" height="2"/><path class="cls-17" d="M220.0718,306.3639c-3,12-9.076,37.8173-6,40.75,19.6667,18.75,71.527-28.1942,91.6667-27,25.7335,1.5259,83.6666,44.6667,91.6666,27.6667,3.2024-6.805-3-21.6667-8.0833-37.1667C333.6551,310.6139,275.7385,306.3639,220.0718,306.3639Z" transform="translate(-36.0718 -31.1068)"/><path class="cls-17" d="M284.5718,237.4472c-.026,1.778.1134,12.1671-2.125,14.2917-3.6875,3.5-13.4687,4.375-13.4687,4.375-.2136,2.0644,15.5216,9.833,35.5937,9.75,15.6973-.0649,34.4688-5.0937,34.4063-9.4062-.0028-.1875-9.3541-.4853-13.1563-6.5938-1.5289-2.4563-1.74-12.29-1.75-13.75-4.125,2.25-10.47,6.6667-18.875,6.6667C294.5718,242.7806,288.8172,238.9753,284.5718,237.4472Z" transform="translate(-36.0718 -31.1068)"/><path class="cls-17" d="M270.6328,202.8945c1.1994,4.1806.0737,8.1715-2.5143,8.914s-5.6582-2.0446-6.8577-6.2252-.0737-8.1715,2.5143-8.914S269.4333,198.7139,270.6328,202.8945Z" transform="translate(-36.0718 -31.1068)"/><path class="cls-17" d="M337.2608,202.8945c-1.1994,4.1806-.0737,8.1715,2.5143,8.914s5.6582-2.0446,6.8577-6.2252.0737-8.1715-2.5143-8.914S338.46,198.7139,337.2608,202.8945Z" transform="translate(-36.0718 -31.1068)"/><path class="cls-18" d="M338.1,172.9276a27.4111,27.4111,0,0,0,1.4345-27.38c-3.0571,4.4926-8.791,6.3966-14.2118,6.7765s-10.8737-.46-16.2928-.0568a23.9445,23.9445,0,0,0-8.2831,2.0455,49.3921,49.3921,0,0,0-15.9249,3.176c-13.5,5.875-21.75,18.9916-21.75,41.375,0,23.5,19,32.5,20.5,42.5,0,0,10.1663,3.75,19.1667,3.75,13.75,0,22.6666-3.6667,22.6666-3.6667,0-13,18.0833-19.8885,19.6667-42.5833C345.8218,188.1139,342.8218,180.3639,338.1,172.9276Z" transform="translate(-36.0718 -31.1068)"/><path class="cls-19" d="M391.0718,311.8124c1.9593,12.6173-175.7022,16.2654-173.3333-.6985,3.459-24.7708,12.3272-46.1147,51.24-54.9687,3.4487-.7848,9.427-2.0313,9.427-2.0313,2.3334,3.3333,16.1681,5.8762,25.0417,6,10.74.15,22.4583-1.3333,28.7917-5.1667,0,0,4.8935,1.1694,6.74,1.51C380.3226,264.0962,386.9993,285.587,391.0718,311.8124Z" transform="translate(-36.0718 -31.1068)"/><circle class="cls-8" cx="208" cy="490.1738" r="6"/><circle class="cls-8" cx="203" cy="519.1738" r="6"/><circle class="cls-8" cx="328" cy="488.1738" r="6"/><rect class="cls-1" x="260" y="449.1738" width="18" height="47"/><path class="cls-5" d="M383.0718,468.2806c0,13-31.6081,19-78,19s-81-8-81-21c0-16,33.6081-24,80-24S383.0718,455.2806,383.0718,468.2806Z" transform="translate(-36.0718 -31.1068)"/><path class="cls-1" d="M406.0718,412.8882c0,36.3223-51.6138,59.1241-102.6615,58.7257-49.94-.39-99.3385-23.1915-99.3385-58.7257,0-71.8565,45.2192-124.1076,101-124.1076S406.0718,341.0317,406.0718,412.8882Z" transform="translate(-36.0718 -31.1068)"/><polygon class="cls-1" points="334 515.174 210.515 484.114 209 480.174 335 510.174 334 515.174"/><polygon class="cls-1" points="203 517.174 202 512.174 326.258 479.36 327.287 483.225 203 517.174"/><path class="cls-1" d="M246.0718,511.2806a8.4106,8.4106,0,0,0-10,8c0,4,16,3,16,1C252.0718,516.7671,249.9941,512.065,246.0718,511.2806Z" transform="translate(-36.0718 -31.1068)"/><path class="cls-1" d="M241.0718,541.2806a8.4106,8.4106,0,0,0-10,8c0,4,16,3,16,1C247.0718,546.7671,244.9941,542.065,241.0718,541.2806Z" transform="translate(-36.0718 -31.1068)"/><circle class="cls-8" cx="336" cy="519.1738" r="6"/><path class="cls-1" d="M370.0718,540.2806a8.4106,8.4106,0,0,1,10,8c0,4-16,3-16,1C364.0718,545.7671,366.15,541.065,370.0718,540.2806Z" transform="translate(-36.0718 -31.1068)"/><path class="cls-1" d="M362.0718,510.2806a8.4106,8.4106,0,0,1,10,8c0,4-16,3-16,1C356.0718,515.7671,358.15,511.065,362.0718,510.2806Z" transform="translate(-36.0718 -31.1068)"/><ellipse class="cls-1" cx="268.5" cy="498.6738" rx="9.5" ry="5.5"/><path class="cls-19" d="M305.3218,263.8639c12.6912,0,24.1815-2.9193,32.504-7.6395-2.2013-.4682-5.5873-1.2772-5.5873-1.2772-6.3334,3.8333-18.0518,5.3165-28.7917,5.1667-8.8736-.1238-22.7083-2.6667-25.0417-6,0,0-3.5279.7357-6.7275,1.4326C280.0748,260.6614,292.0369,263.8639,305.3218,263.8639Z" transform="translate(-36.0718 -31.1068)"/></svg>